# xmcd CD database file
#
# Track frame offsets:
#	150
#	10500
#	25700
#	41260
#	51072
#	62102
#	75502
#	88192
#	103620
#	115810
#	136092
#	149412
#	164442
#
# Disc length: 2441 seconds
#
# Revision: 0
# Processed by: cddbd v1.5.2PL0 Copyright (c) Steve Scherf et al.
# Submitted via: CDex 1.70beta2
#
DISCID=9b09870d
DTITLE=Donald Lambert - Giant Stride - Solo Art
DYEAR=1961
DGENRE=Jazz
TTITLE0=Trolley Song
TTITLE1=Sophisticated Lady
TTITLE2=There Will Never Be Another You
TTITLE3=Spain
TTITLE4=Rose of the Rio Grande
TTITLE5=If I Could Be With You One Hour Tonight
TTITLE6=Linger Awhile
TTITLE7=Liza
TTITLE8=People Will Say We're In Love
TTITLE9=When Your Lover Has Gone
TTITLE10=I'm Putting All My Eggs In One Basket
TTITLE11=Misty
TTITLE12=Medley-Swingin' Down The Lane-My Sweetie Went Away
EXTD=YEAR: 1961
EXTT0=
EXTT1=
EXTT2=
EXTT3=
EXTT4=
EXTT5=
EXTT6=
EXTT7=
EXTT8=
EXTT9=
EXTT10=
EXTT11=
EXTT12=
PLAYORDER=
